<svg width="420" height="288" viewBox="0 0 420 288" fill="none" xmlns="http://www.w3.org/2000/svg">
<path fill-rule="evenodd" clip-rule="evenodd" d="M257.388 0.854794C253.448 2.44679 251 6.75079 251 12.0868C251 16.2158 251.481 17.5098 253.923 19.9518C258.039 24.0678 263.961 24.0678 268.077 19.9518C270.465 17.5638 271 16.1828 271 12.4018C271 6.3768 268.851 2.36679 264.881 0.982794C261.209 -0.297206 260.278 -0.313206 257.388 0.854794ZM265.365 4.94779C267.485 6.61479 268 7.86479 268 11.3368C268 17.0988 265.475 20.2208 260.922 20.0918C256.582 19.9678 254 16.9118 254 11.8988C254 7.3448 257.189 2.87479 260.438 2.87479C261.699 2.87479 263.916 3.80779 265.365 4.94779ZM247.268 25.5668C246.196 27.1118 242.035 34.1118 238.022 41.1248L230.725 53.8748H214.362C204.367 53.8748 198 54.2558 198 54.8528C198 55.4458 205.362 55.9378 216.686 56.1028L235.373 56.3748L247.661 77.7108L259.95 99.0468L247.725 120.427L235.5 141.807L210.401 141.841L185.302 141.875L173.088 120.625C160.944 99.4968 160.883 99.3578 162.384 96.3748C163.215 94.7248 167.063 87.8268 170.936 81.0448C174.809 74.2638 177.42 68.8948 176.739 69.1138C175.557 69.4938 172.324 74.5868 163.087 90.6248L158.912 97.8748H134.049H109.186L100.356 82.6268C95.5 74.2398 91.39 68.0858 91.224 68.9518C91.057 69.8168 94.589 76.9298 99.073 84.7578L107.224 98.9898L94.921 120.432L82.617 141.875H64.309C53.051 141.875 46 142.251 46 142.852C46 143.443 53.217 143.938 64.25 144.102L82.5 144.375L95 166.102L107.5 187.829L126.5 187.976C136.95 188.057 148.635 188.405 152.467 188.749L159.435 189.375L170.172 207.875C176.078 218.05 180.917 226.825 180.925 227.375C180.933 227.925 176.695 235.779 171.506 244.828C166.318 253.877 162.252 261.46 162.47 261.678C163.398 262.606 165.037 260.22 173.522 245.587C181.778 231.35 182.628 230.239 184.486 231.264C185.594 231.875 186.639 232.439 186.81 232.518C186.98 232.597 182.998 239.94 177.961 248.836C172.924 257.732 169.072 265.28 169.401 265.609C170.221 266.43 169.648 267.306 180.51 248.625L190.248 231.875H206.183C216.552 231.875 221.902 231.526 221.5 230.875C221.125 230.269 213.855 229.875 203.036 229.875H185.191L173.095 208.836C166.443 197.265 161 187.554 161 187.257C161 186.96 166.512 177.079 173.25 165.3L185.5 143.883L210.364 144.129L235.229 144.375L247.564 165.784C256.548 181.376 259.667 187.626 259.042 188.784C258.57 189.659 254.543 196.664 250.092 204.352C245.641 212.039 242 218.676 242 219.102C242 221.819 244.711 218.034 252.548 204.375L261.442 188.875H286.623H311.804L320.45 203.846C328.566 217.897 331 221.391 331 218.986C331 218.431 327.175 211.285 322.5 203.104C317.825 194.924 314 187.749 314 187.16C314 186.572 319.467 176.592 326.15 164.983L338.299 143.875H356.85C368.913 143.875 375.059 143.534 374.424 142.899C373.884 142.359 365.475 141.801 355.609 141.649L337.77 141.375L325.384 119.875L312.998 98.3748L287.257 97.8748L261.517 97.3748L250.367 78.0428L239.217 58.7118L246.094 46.7808C255.033 31.2738 257.247 26.8748 256.113 26.8748C255.602 26.8748 251.464 33.2868 246.916 41.1248C237.527 57.3068 237.877 56.7978 237.28 55.1248C237.034 54.4378 236.196 53.8748 235.417 53.8748C234.637 53.8748 234 53.5848 234 53.2298C234 52.8748 236.862 47.5868 240.36 41.4798C248.429 27.3918 250.262 23.8028 249.683 23.2238C249.427 22.9688 248.341 24.0228 247.268 25.5668ZM78.11 45.2708C74.696 47.1628 73.076 50.6518 73.035 56.2018C73.006 60.2738 73.477 61.5058 76.048 64.0768C78.78 66.8088 79.568 67.0708 83.66 66.6098C89.532 65.9478 92.074 63.3978 92.738 57.5038C93.434 51.3298 91.531 46.9948 87.36 45.2518C83.301 43.5558 81.196 43.5598 78.11 45.2708ZM180.256 44.8568C173.501 47.7138 172.137 58.9278 177.917 64.0928C186.234 71.5238 197.71 62.6158 194.061 51.5608C193.436 49.6668 192.097 47.3678 191.086 46.4528C188.821 44.4028 183.266 43.5848 180.256 44.8568ZM51 55.8748C51 64.8098 51.272 66.8748 52.448 66.8748C53.489 66.8748 53.98 65.4018 54.198 61.6248L54.5 56.3748H60H65.5L65.802 61.6248C66.02 65.4018 66.511 66.8748 67.552 66.8748C68.728 66.8748 69 64.8098 69 55.8748C69 46.9588 68.727 44.8748 67.557 44.8748C66.575 44.8748 66.017 46.2308 65.807 49.1248L65.5 53.3748L59.75 53.6748L54 53.9748V49.4248C54 46.0468 53.614 44.8748 52.5 44.8748C51.258 44.8748 51 46.7638 51 55.8748ZM87.927 49.5098C90.408 52.6638 90.656 58.4938 88.443 61.6518C87.289 63.3008 85.883 63.8748 83 63.8748C78.222 63.8748 76 61.2058 76 55.4668C76 47.7468 83.568 43.9668 87.927 49.5098ZM189.139 48.7868C190.985 50.2808 191.5 51.6758 191.5 55.1818C191.5 60.7858 189.013 63.8748 184.5 63.8748C179.987 63.8748 177.5 60.7858 177.5 55.1818C177.5 50.1908 180.295 46.8748 184.5 46.8748C185.753 46.8748 187.841 47.7348 189.139 48.7868ZM170.863 120.964C177.538 132.563 182.98 142.576 182.955 143.214C182.93 143.853 177.599 153.6 171.108 164.875L159.307 185.375H134.032H108.757L96.9 164.875C90.378 153.6 85.145 143.659 85.271 142.783C85.397 141.908 90.675 132.149 97 121.096L108.5 101L114.5 100.63C117.8 100.427 129.101 100.174 139.613 100.068L158.726 99.8748L170.863 120.964ZM324.053 121.875C330.607 133.15 335.863 142.86 335.734 143.452C335.605 144.045 330.131 153.833 323.568 165.202L311.636 185.875L286.568 185.866L261.5 185.857L249.5 164.737C242.9 153.122 237.645 143.113 237.822 142.496C237.999 141.88 243.367 132.255 249.751 121.108L261.359 100.842L286.748 101.108L312.137 101.375L324.053 121.875ZM101.954 123.623C96.327 133.387 91.553 141.681 91.345 142.056C91.137 142.43 91.372 142.987 91.867 143.293C92.361 143.598 96.591 137.217 101.267 129.112C105.943 121.006 110.742 112.727 111.931 110.713C113.164 108.625 113.684 106.797 113.14 106.461C112.615 106.137 107.581 113.86 101.954 123.623ZM154.675 106.591C154.157 107.43 172.484 139.759 174.779 142.054C177.994 145.269 175.931 140.866 166.649 124.701C155.761 105.74 155.472 105.303 154.675 106.591ZM266 106.875C266 107.51 273.667 107.875 287 107.875C300.333 107.875 308 107.51 308 106.875C308 106.24 300.333 105.875 287 105.875C273.667 105.875 266 106.24 266 106.875ZM28.388 132.855C22.652 135.173 20.245 143.581 23.51 149.895C26.56 155.792 34.224 156.805 39.077 151.952C41.465 149.564 42 148.183 42 144.402C42 138.377 39.851 134.367 35.881 132.983C32.209 131.703 31.278 131.687 28.388 132.855ZM384.388 132.817C380.423 134.491 378 138.764 378 144.087C378 148.216 378.481 149.51 380.923 151.952C383.216 154.244 384.742 154.875 388 154.875C391.258 154.875 392.784 154.244 395.077 151.952C397.538 149.491 398 148.228 398 143.968C398 139.845 397.49 138.347 395.25 135.888C392.298 132.649 387.801 131.377 384.388 132.817ZM0 143.875C0 152.986 0.258 154.875 1.5 154.875C2.633 154.875 3 153.653 3 149.875V144.875H9H15V149.875C15 153.653 15.367 154.875 16.5 154.875C17.742 154.875 18 152.986 18 143.875C18 134.764 17.742 132.875 16.5 132.875C15.389 132.875 15 134.042 15 137.375V141.875H9H3V137.375C3 134.042 2.611 132.875 1.5 132.875C0.258 132.875 0 134.764 0 143.875ZM402 143.875C402 152.986 402.258 154.875 403.5 154.875C404.633 154.875 405 153.653 405 149.875V144.875H411H417V149.875C417 153.653 417.367 154.875 418.5 154.875C419.742 154.875 420 152.986 420 143.875C420 134.764 419.742 132.875 418.5 132.875C417.389 132.875 417 134.042 417 137.375V141.875H411H405V137.375C405 134.042 404.611 132.875 403.5 132.875C402.258 132.875 402 134.764 402 143.875ZM36.365 136.948C38.565 138.678 39 139.821 39 143.875C39 147.961 38.572 149.067 36.293 150.859C28.679 156.848 20.482 144.302 27.455 137.33C30.453 134.331 32.905 134.226 36.365 136.948ZM392.545 137.33C397.7 142.484 394.729 152.208 388 152.208C383.667 152.208 381 148.974 381 143.719C381 139.249 384.462 134.875 388 134.875C389.15 134.875 391.195 135.98 392.545 137.33ZM244 143.276C244 144.721 264.37 179.875 265.208 179.875C266.866 179.875 265.736 177.477 256.855 162.154C248.464 147.677 244 141.122 244 143.276ZM325.835 146.379C321.64 153.084 308.02 176.659 307.384 178.317C307.055 179.174 307.249 179.875 307.815 179.875C309.13 179.875 329.181 144.918 328.698 143.468C328.499 142.871 327.211 144.181 325.835 146.379ZM113 179.875C113 180.51 120.667 180.875 134 180.875C147.333 180.875 155 180.51 155 179.875C155 179.24 147.333 178.875 134 178.875C120.667 178.875 113 179.24 113 179.875ZM230.11 222.271C226.779 224.117 225.077 227.624 225.035 232.725C225.006 236.363 225.556 237.631 228.4 240.475C236.487 248.562 248.083 240.323 244.956 228.71C243.146 221.99 236.117 218.941 230.11 222.271ZM331.36 222.335C326.162 225.976 325.665 236.47 330.494 240.623C332.343 242.214 334.391 242.875 337.467 242.875C341.103 242.875 342.25 242.367 344.411 239.798C348.488 234.953 347.799 225.775 343.087 222.157C340.886 220.467 333.875 220.574 331.36 222.335ZM351 231.875C351 242.208 351.121 242.875 353 242.875C354.733 242.875 355 242.208 355 237.875V232.875H360.5H366V237.875C366 241.653 366.367 242.875 367.5 242.875C368.742 242.875 369 240.986 369 231.875C369 222.764 368.742 220.875 367.5 220.875C366.389 220.875 366 222.042 366 225.375V229.875H360.5H355V225.375C355 221.542 354.704 220.875 353 220.875C351.121 220.875 351 221.542 351 231.875ZM341.365 224.948C343.565 226.678 344 227.821 344 231.875C344 235.929 343.565 237.072 341.365 238.802C337.905 241.524 335.453 241.419 332.455 238.42C330.648 236.614 330 234.885 330 231.875C330 228.865 330.648 227.136 332.455 225.33C335.453 222.331 337.905 222.226 341.365 224.948ZM240.395 226.125C242.997 230.186 242.815 236.06 240 238.875C237.122 241.753 232.608 241.464 230.073 238.24C225.626 232.587 228.948 223.875 235.55 223.875C237.986 223.875 239.364 224.515 240.395 226.125ZM153.75 265.955C148.697 268.898 147.432 278.858 151.497 283.689C154.551 287.319 158.107 288.325 162.618 286.836C166.843 285.442 169 281.558 169 275.348C169 269.142 165.034 264.86 159.327 264.905C157.222 264.922 154.712 265.394 153.75 265.955ZM164.443 270.098C166.707 273.329 166.45 280.014 163.961 282.686C159.237 287.757 152 283.554 152 275.74C152 270.784 154.753 267.875 159.443 267.875C161.868 267.875 163.347 268.533 164.443 270.098Z" fill="white"/>
</svg>
